<svg width="101" height="23" viewBox="0 0 101 23" fill="none" xmlns="http://www.w3.org/2000/svg">
<rect x="0.5" y="0.5" width="100" height="22" rx="11" stroke="black" stroke-opacity="0.7"/>
<path d="M19.0568 16V7.27273H22.0057C22.6903 7.27273 23.25 7.39631 23.6847 7.64347C24.1222 7.88778 24.446 8.21875 24.6562 8.63636C24.8665 9.05398 24.9716 9.51989 24.9716 10.0341C24.9716 10.5483 24.8665 11.0156 24.6562 11.4361C24.4489 11.8565 24.1278 12.1918 23.6932 12.4418C23.2585 12.6889 22.7017 12.8125 22.0227 12.8125H19.9091V11.875H21.9886C22.4574 11.875 22.8338 11.794 23.1179 11.6321C23.402 11.4702 23.608 11.2514 23.7358 10.9759C23.8665 10.6974 23.9318 10.3835 23.9318 10.0341C23.9318 9.68466 23.8665 9.37216 23.7358 9.09659C23.608 8.82102 23.4006 8.60511 23.1136 8.44886C22.8267 8.28977 22.446 8.21023 21.9716 8.21023H20.1136V16H19.0568ZM27.7308 7.27273V16H26.674V7.27273H27.7308ZM36.7702 7.27273V16H35.7475L30.9918 9.14773H30.9066V16H29.8498V7.27273H30.8725L35.6452 14.142H35.7305V7.27273H36.7702ZM38.4077 8.21023V7.27273H44.9531V8.21023H42.2088V16H41.152V8.21023H38.4077ZM46.5842 16V7.27273H51.8512V8.21023H47.641V11.1591H51.5785V12.0966H47.641V15.0625H51.9194V16H46.5842ZM53.756 16V7.27273H56.7049C57.3867 7.27273 57.9464 7.3892 58.3839 7.62216C58.8214 7.85227 59.1452 8.16903 59.3555 8.57244C59.5657 8.97585 59.6708 9.43466 59.6708 9.94886C59.6708 10.4631 59.5657 10.919 59.3555 11.3168C59.1452 11.7145 58.8228 12.027 58.3881 12.2543C57.9535 12.4787 57.3981 12.5909 56.7219 12.5909H54.3356V11.6364H56.6879C57.1538 11.6364 57.5288 11.5682 57.8129 11.4318C58.0998 11.2955 58.3072 11.1023 58.435 10.8523C58.5657 10.5994 58.631 10.2983 58.631 9.94886C58.631 9.59943 58.5657 9.29403 58.435 9.03267C58.3043 8.77131 58.0955 8.5696 57.8086 8.42756C57.5217 8.28267 57.1424 8.21023 56.6708 8.21023H54.8129V16H53.756ZM57.864 12.0795L60.0117 16H58.7844L56.6708 12.0795H57.864ZM61.4318 16V7.27273H66.6989V8.21023H62.4886V11.1591H66.4261V12.0966H62.4886V15.0625H66.767V16H61.4318ZM73.3764 9.45455C73.3253 9.02273 73.1179 8.6875 72.7543 8.44886C72.3906 8.21023 71.9446 8.09091 71.4162 8.09091C71.0298 8.09091 70.6918 8.15341 70.402 8.27841C70.1151 8.40341 69.8906 8.57528 69.7287 8.79403C69.5696 9.01278 69.4901 9.26136 69.4901 9.53977C69.4901 9.77273 69.5455 9.97301 69.6562 10.1406C69.7699 10.3054 69.9148 10.4432 70.0909 10.554C70.267 10.6619 70.4517 10.7514 70.6449 10.8224C70.8381 10.8906 71.0156 10.946 71.1776 10.9886L72.0639 11.2273C72.2912 11.2869 72.544 11.3693 72.8224 11.4744C73.1037 11.5795 73.3722 11.723 73.6278 11.9048C73.8864 12.0838 74.0994 12.3139 74.267 12.5952C74.4347 12.8764 74.5185 13.2216 74.5185 13.6307C74.5185 14.1023 74.3949 14.5284 74.1477 14.9091C73.9034 15.2898 73.5455 15.5923 73.0739 15.8168C72.6051 16.0412 72.0355 16.1534 71.3651 16.1534C70.7401 16.1534 70.1989 16.0526 69.7415 15.8509C69.2869 15.6491 68.929 15.3679 68.6676 15.0071C68.4091 14.6463 68.2628 14.2273 68.2287 13.75H69.3196C69.348 14.0795 69.4588 14.3523 69.652 14.5682C69.848 14.7812 70.0952 14.9403 70.3935 15.0455C70.6946 15.1477 71.0185 15.1989 71.3651 15.1989C71.7685 15.1989 72.1307 15.1335 72.4517 15.0028C72.7727 14.8693 73.027 14.6847 73.2145 14.4489C73.402 14.2102 73.4957 13.9318 73.4957 13.6136C73.4957 13.3239 73.4148 13.0881 73.2528 12.9062C73.0909 12.7244 72.8778 12.5767 72.6136 12.4631C72.3494 12.3494 72.0639 12.25 71.7571 12.1648L70.6832 11.858C70.0014 11.6619 69.4616 11.3821 69.0639 11.0185C68.6662 10.6548 68.4673 10.179 68.4673 9.59091C68.4673 9.10227 68.5994 8.67614 68.8636 8.3125C69.1307 7.94602 69.4886 7.66193 69.9375 7.46023C70.3892 7.25568 70.8935 7.15341 71.4503 7.15341C72.0128 7.15341 72.5128 7.25426 72.9503 7.45597C73.3878 7.65483 73.7344 7.92756 73.9901 8.27415C74.2486 8.62074 74.3849 9.0142 74.3991 9.45455H73.3764ZM75.7788 8.21023V7.27273H82.3242V8.21023H79.5799V16H78.5231V8.21023H75.7788Z" fill="black" fill-opacity="0.7"/>
</svg>
