<svg width="101" height="23" viewBox="0 0 101 23" fill="none" xmlns="http://www.w3.org/2000/svg">
<rect x="0.5" y="0.5" width="100" height="22" rx="11" stroke="black" stroke-opacity="0.7"/>
<path d="M18.5795 8.21023V7.27273H25.125V8.21023H22.3807V16H21.3239V8.21023H18.5795ZM26.756 16V7.27273H32.0231V8.21023H27.8129V11.1591H31.7504V12.0966H27.8129V15.0625H32.0913V16H26.756ZM33.9279 16V7.27273H34.9847V15.0625H39.0415V16H33.9279ZM40.6779 16V7.27273H45.945V8.21023H41.7347V11.1591H45.6722V12.0966H41.7347V15.0625H46.0131V16H40.6779ZM53.8157 10C53.7219 9.71307 53.5984 9.45597 53.445 9.22869C53.2944 8.99858 53.114 8.80256 52.9038 8.64062C52.6964 8.47869 52.4606 8.35511 52.1964 8.26989C51.9322 8.18466 51.6424 8.14205 51.3271 8.14205C50.81 8.14205 50.3398 8.27557 49.9165 8.54261C49.4933 8.80966 49.1566 9.20312 48.9066 9.72301C48.6566 10.2429 48.5316 10.8807 48.5316 11.6364C48.5316 12.392 48.658 13.0298 48.9109 13.5497C49.1637 14.0696 49.506 14.4631 49.9379 14.7301C50.3697 14.9972 50.8555 15.1307 51.3952 15.1307C51.8952 15.1307 52.3356 15.0241 52.7163 14.8111C53.0998 14.5952 53.3981 14.2912 53.6112 13.8991C53.8271 13.5043 53.935 13.0398 53.935 12.5057L54.2589 12.5739H51.6339V11.6364H54.9577V12.5739C54.9577 13.2926 54.8043 13.9176 54.4975 14.4489C54.1935 14.9801 53.7731 15.392 53.2362 15.6847C52.7021 15.9744 52.0884 16.1193 51.3952 16.1193C50.6225 16.1193 49.9435 15.9375 49.3583 15.5739C48.7759 15.2102 48.3214 14.6932 47.9947 14.0227C47.6708 13.3523 47.5089 12.5568 47.5089 11.6364C47.5089 10.946 47.6012 10.3253 47.7859 9.77415C47.9734 9.22017 48.2376 8.74858 48.5785 8.35938C48.9194 7.97017 49.3228 7.67188 49.7887 7.46449C50.2546 7.2571 50.7674 7.15341 51.3271 7.15341C51.7873 7.15341 52.2163 7.22301 52.614 7.36222C53.0146 7.49858 53.3711 7.69318 53.6836 7.94602C53.9989 8.19602 54.2617 8.49574 54.4719 8.84517C54.6822 9.19176 54.8271 9.5767 54.9066 10H53.8157ZM56.7678 16V7.27273H59.7166C60.3984 7.27273 60.9581 7.3892 61.3956 7.62216C61.8331 7.85227 62.157 8.16903 62.3672 8.57244C62.5774 8.97585 62.6825 9.43466 62.6825 9.94886C62.6825 10.4631 62.5774 10.919 62.3672 11.3168C62.157 11.7145 61.8345 12.027 61.3999 12.2543C60.9652 12.4787 60.4098 12.5909 59.7337 12.5909H57.3473V11.6364H59.6996C60.1655 11.6364 60.5405 11.5682 60.8246 11.4318C61.1115 11.2955 61.3189 11.1023 61.4467 10.8523C61.5774 10.5994 61.6428 10.2983 61.6428 9.94886C61.6428 9.59943 61.5774 9.29403 61.4467 9.03267C61.3161 8.77131 61.1072 8.5696 60.8203 8.42756C60.5334 8.28267 60.1541 8.21023 59.6825 8.21023H57.8246V16H56.7678ZM60.8757 12.0795L63.0234 16H61.7962L59.6825 12.0795H60.8757ZM64.8015 16H63.6935L66.8981 7.27273H67.989L71.1935 16H70.0856L67.4776 8.65341H67.4094L64.8015 16ZM65.2106 12.5909H69.6765V13.5284H65.2106V12.5909ZM72.5529 7.27273H73.8143L76.7802 14.517H76.8825L79.8484 7.27273H81.1097V16H80.1211V9.36932H80.0359L77.3086 16H76.354L73.6268 9.36932H73.5415V16H72.5529V7.27273Z" fill="black" fill-opacity="0.7"/>
</svg>
