<svg width="94" height="23" viewBox="0 0 94 23" fill="none" xmlns="http://www.w3.org/2000/svg">
<rect x="0.5" y="0.5" width="93" height="22" rx="11" stroke="black" stroke-opacity="0.7"/>
<path d="M18.3068 7.27273H19.517L21.9375 11.3466H22.0398L24.4602 7.27273H25.6705L22.517 12.4034V16H21.4602V12.4034L18.3068 7.27273ZM33.9908 11.6364C33.9908 12.5568 33.8246 13.3523 33.4922 14.0227C33.1598 14.6932 32.7038 15.2102 32.1243 15.5739C31.5447 15.9375 30.8828 16.1193 30.1385 16.1193C29.3942 16.1193 28.7322 15.9375 28.1527 15.5739C27.5732 15.2102 27.1172 14.6932 26.7848 14.0227C26.4524 13.3523 26.2862 12.5568 26.2862 11.6364C26.2862 10.7159 26.4524 9.92045 26.7848 9.25C27.1172 8.57955 27.5732 8.0625 28.1527 7.69886C28.7322 7.33523 29.3942 7.15341 30.1385 7.15341C30.8828 7.15341 31.5447 7.33523 32.1243 7.69886C32.7038 8.0625 33.1598 8.57955 33.4922 9.25C33.8246 9.92045 33.9908 10.7159 33.9908 11.6364ZM32.968 11.6364C32.968 10.8807 32.8416 10.2429 32.5888 9.72301C32.3388 9.20312 31.9993 8.80966 31.5703 8.54261C31.1442 8.27557 30.6669 8.14205 30.1385 8.14205C29.6101 8.14205 29.1314 8.27557 28.7024 8.54261C28.2763 8.80966 27.9368 9.20312 27.6839 9.72301C27.4339 10.2429 27.3089 10.8807 27.3089 11.6364C27.3089 12.392 27.4339 13.0298 27.6839 13.5497C27.9368 14.0696 28.2763 14.4631 28.7024 14.7301C29.1314 14.9972 29.6101 15.1307 30.1385 15.1307C30.6669 15.1307 31.1442 14.9972 31.5703 14.7301C31.9993 14.4631 32.3388 14.0696 32.5888 13.5497C32.8416 13.0298 32.968 12.392 32.968 11.6364ZM41.495 7.27273H42.5518V13.0511C42.5518 13.6477 42.4112 14.1804 42.13 14.6491C41.8516 15.1151 41.4581 15.483 40.9496 15.7528C40.4411 16.0199 39.8445 16.1534 39.1598 16.1534C38.4751 16.1534 37.8786 16.0199 37.37 15.7528C36.8615 15.483 36.4666 15.1151 36.1854 14.6491C35.907 14.1804 35.7678 13.6477 35.7678 13.0511V7.27273H36.8246V12.9659C36.8246 13.392 36.9183 13.7713 37.1058 14.1037C37.2933 14.4332 37.5604 14.6932 37.907 14.8835C38.2564 15.071 38.674 15.1648 39.1598 15.1648C39.6456 15.1648 40.0632 15.071 40.4126 14.8835C40.7621 14.6932 41.0291 14.4332 41.2138 14.1037C41.4013 13.7713 41.495 13.392 41.495 12.9659V7.27273ZM44.185 8.21023V7.27273H50.7305V8.21023H47.9862V16H46.9293V8.21023H44.185ZM58.0888 7.27273H59.1456V13.0511C59.1456 13.6477 59.005 14.1804 58.7237 14.6491C58.4453 15.1151 58.0518 15.483 57.5433 15.7528C57.0348 16.0199 56.4382 16.1534 55.7536 16.1534C55.0689 16.1534 54.4723 16.0199 53.9638 15.7528C53.4553 15.483 53.0604 15.1151 52.7791 14.6491C52.5007 14.1804 52.3615 13.6477 52.3615 13.0511V7.27273H53.4183V12.9659C53.4183 13.392 53.5121 13.7713 53.6996 14.1037C53.8871 14.4332 54.1541 14.6932 54.5007 14.8835C54.8501 15.071 55.2678 15.1648 55.7536 15.1648C56.2393 15.1648 56.657 15.071 57.0064 14.8835C57.3558 14.6932 57.6229 14.4332 57.8075 14.1037C57.995 13.7713 58.0888 13.392 58.0888 12.9659V7.27273ZM61.256 16V7.27273H64.3072C64.9151 7.27273 65.4165 7.37784 65.8114 7.58807C66.2063 7.79545 66.5004 8.07528 66.6935 8.42756C66.8867 8.77699 66.9833 9.16477 66.9833 9.59091C66.9833 9.96591 66.9165 10.2756 66.783 10.5199C66.6523 10.7642 66.479 10.9574 66.2631 11.0994C66.0501 11.2415 65.8185 11.3466 65.5685 11.4148V11.5C65.8356 11.517 66.104 11.6108 66.3739 11.7812C66.6438 11.9517 66.8697 12.196 67.0515 12.5142C67.2333 12.8324 67.3242 13.2216 67.3242 13.6818C67.3242 14.1193 67.2248 14.5128 67.0259 14.8622C66.8271 15.2116 66.5131 15.4886 66.0842 15.6932C65.6552 15.8977 65.0969 16 64.4094 16H61.256ZM62.3129 15.0625H64.4094C65.0998 15.0625 65.5898 14.929 65.8796 14.6619C66.1722 14.392 66.3185 14.0653 66.3185 13.6818C66.3185 13.3864 66.2433 13.1136 66.0927 12.8636C65.9421 12.6108 65.7276 12.4091 65.4492 12.2585C65.1708 12.1051 64.8413 12.0284 64.4606 12.0284H62.3129V15.0625ZM62.3129 11.108H64.2731C64.5913 11.108 64.8782 11.0455 65.1339 10.9205C65.3924 10.7955 65.5969 10.6193 65.7475 10.392C65.9009 10.1648 65.9776 9.89773 65.9776 9.59091C65.9776 9.20739 65.8441 8.8821 65.5771 8.61506C65.31 8.34517 64.8867 8.21023 64.3072 8.21023H62.3129V11.108ZM69.0607 16V7.27273H74.3278V8.21023H70.1175V11.1591H74.055V12.0966H70.1175V15.0625H74.396V16H69.0607Z" fill="black" fill-opacity="0.7"/>
</svg>
